<mxfile host="app.diagrams.net">
  <diagram name="Page-1" id="xXxXxXxXxXxXxXxXxXxXxXx">
    <mxGraphModel dx="1173" dy="712" grid="1" gridSize="10" guides="1" tooltips="1" connect="1" arrows="1" fold="1" page="1" pageScale="1" pageWidth="827" pageHeight="1169" math="0" shadow="0">
      <root>
        <mxCell id="0" parent="">
          <mxCell id="1" parent="0" />
        </mxCell>
        <mxCell id="start" value="开始" style="ellipse;whiteSpace=wrap;html=1;" vertex="1" parent="1">
          <mxGeometry x="240" y="20" width="80" height="30" />
        </mxCell>
        <mxCell id="inputMemory" value="用户输入总内存大小" style="rounded=0;whiteSpace=wrap;html=1;" vertex="1" parent="1">
          <mxGeometry x="200" y="80" width="160" height="40" />
        </mxCell>
        <mxCell id="showMenu" value="显示操作菜单" style="rounded=0;whiteSpace=wrap;html=1;" vertex="1" parent="1">
          <mxGeometry x="200" y="140" width="160" height="40" />
        </mxCell>
        <mxCell id="decision" value="用户选择操作" style="shape=diamond;whiteSpace=wrap;html=1;" vertex="1" parent="1">
          <mxGeometry x="240" y="200" width="80" height="40" />
        </mxCell>
        <mxCell id="allocateMemory" value="分配内存" style="rounded=0;whiteSpace=wrap;html=1;" vertex="1" parent="1">
          <mxGeometry x="130" y="280" width="160" height="40" />
        </mxCell>
        <mxCell id="freeMemory" value="释放内存" style="rounded=0;whiteSpace=wrap;html=1;" vertex="1" parent="1">
          <mxGeometry x="240" y="280" width="160" height="40" />
        </mxCell>
        <mxCell id="displayStatus" value="显示内存状态" style="rounded=0;whiteSpace=wrap;html=1;" vertex="1" parent="1">
          <mxGeometry x="350" y="280" width="160" height="40" />
        </mxCell>
        <mxCell id="exit" value="退出程序" style="rounded=0;whiteSpace=wrap;html=1;" vertex="1" parent="1">
          <mxGeometry x="460" y="280" width="160" height="40" />
        </mxCell>
        <mxCell id="end" value="结束" style="ellipse;whiteSpace=wrap;html=1;" vertex="1" parent="1">
          <mxGeometry x="240" y="380" width="80" height="30" />
        </mxCell>
        <!-- Connectors -->
        <mxCell id="edge1" style="edgeStyle=orthogonalEdgeStyle;rounded=0;orthogonalLoop=1;exitX=0.5;exitY=0;entryX=0.5;entryY=1;exitPerimeter=1;entryPerimeter=1;strokeWidth=2;strokeColor=#000000;" edge="1" parent="1" source="start" target="inputMemory">
          <mxGeometry relative="1" />
        </mxCell>
        <mxCell id="edge2" style="edgeStyle=orthogonalEdgeStyle;rounded=0;orthogonalLoop=1;exitX=0.5;exitY=0;entryX=0.5;entryY=1;exitPerimeter=1;entryPerimeter=1;strokeWidth=2;strokeColor=#000000;" edge="1" parent="1" source="inputMemory" target="showMenu">
          <mxGeometry relative="1" />
        </mxCell>
        <mxCell id="edge3" style="edgeStyle=orthogonalEdgeStyle;rounded=0;orthogonalLoop=1;exitX=0.5;exitY=0;entryX=0.5;entryY=1;exitPerimeter=1;entryPerimeter=1;strokeWidth=2;strokeColor=#000000;" edge="1" parent="1" source="showMenu" target="decision">
          <mxGeometry relative="1" />
        </mxCell>
        <mxCell id="edge4" style="edgeStyle=orthogonalEdgeStyle;rounded=0;orthogonalLoop=1;exitX=0.5;exitY=0;entryX=0.5;entryY=1;exitPerimeter=1;entryPerimeter=1;strokeWidth=2;strokeColor=#000000;" edge="1" parent="1" source="decision" target="allocateMemory">
          <mxGeometry relative="1" />
        </mxCell>
        <mxCell id="edge5" style="edgeStyle=orthogonalEdgeStyle;rounded=0;orthogonalLoop=1;exitX=0.5;exitY=0;entryX=0.5;entryY=1;exitPerimeter=1;entryPerimeter=1;strokeWidth=2;strokeColor=#000000;" edge="1" parent="1" source="decision" target="freeMemory">
          <mxGeometry relative="1" />
        </mxCell>
        <mxCell id="edge6" style="edgeStyle=orthogonalEdgeStyle;rounded=0;orthogonalLoop=1;exitX=0.5;exitY=0;entryX=0.5;entryY=1;exitPerimeter=1;entryPerimeter=1;strokeWidth=2;strokeColor=#000000;" edge="1" parent="1" source="decision" target="displayStatus">
          <mxGeometry relative="1" />
        </mxCell>
        <mxCell id="edge7" style="edgeStyle=orthogonalEdgeStyle;rounded=0;orthogonalLoop=1;exitX=0.5;exitY=0;entryX=0.5;entryY=1;exitPerimeter=1;entryPerimeter=1;strokeWidth=2;strokeColor=#000000;" edge="1" parent="1" source="decision" target="exit">
          <mxGeometry relative="1" />
        </mxCell>
        <mxCell id="edge8" style="edgeStyle=orthogonalEdgeStyle;rounded=0;orthogonalLoop=1;exitX=0.5;exitY=0;entryX=0.5;entryY=1;exitPerimeter=1;entryPerimeter=1;strokeWidth=2;strokeColor=#000000;" edge="1" parent="1" source="exit" target="end">
          <mxGeometry relative="1" />
        </mxCell>
      </root>
    </mxGraphModel>
  </diagram>
</mxfile>
